HIERARCHY
ROOT Hips
{
	OFFSET 0.000000 121.760803 0.000000
	CHANNELS 6 Xposition Yposition Zposition Xrotation Yrotation Zrotation 
	JOINT Spine
	{
		OFFSET 0.072000 7.257294 -0.789700
		CHANNELS 3 Xrotation Yrotation Zrotation
		JOINT Spine1
		{
			OFFSET 0.000000 12.508769 -0.658067
			CHANNELS 3 Xrotation Yrotation Zrotation
			JOINT Spine1_split
			{
				OFFSET 0.000000 12.508769 -0.658067
				CHANNELS 3 Xrotation Yrotation Zrotation
				JOINT Spine2
				{
					OFFSET 0.000000 12.508769 -0.658067
					CHANNELS 3 Xrotation Yrotation Zrotation
					JOINT Neck
					{
						OFFSET 0.000000 14.033295 7.520400
						CHANNELS 3 Xrotation Yrotation Zrotation
						JOINT Head
						{
							OFFSET 0.000000 8.198502 5.703100
							CHANNELS 3 Xrotation Yrotation Zrotation
							JOINT HeadTop_End
							{
								OFFSET 0.000000 17.760803 13.332701
								CHANNELS 3 Xrotation Yrotation Zrotation
								End Site
								{
									OFFSET 0.000000 0.000000 0.000000
								}
							}
						}
					}
					JOINT LeftShoulder
					{
						OFFSET 6.292450 5.785301 -0.669000
						CHANNELS 3 Xrotation Yrotation Zrotation
						JOINT LeftShoulder_split
						{
							OFFSET 6.292450 5.785301 -0.669000
							CHANNELS 3 Xrotation Yrotation Zrotation
							JOINT LeftArm
							{
								OFFSET 13.907140 -6.093903 1.965100
								CHANNELS 3 Xrotation Yrotation Zrotation
								JOINT LeftForeArm
								{
									OFFSET 34.140198 0.000000 0.000000
									CHANNELS 3 Xrotation Yrotation Zrotation
									JOINT LeftHand
									{
										OFFSET 40.960209 0.000000 0.000000
										CHANNELS 3 Xrotation Yrotation Zrotation
										JOINT LeftHandThumb1
										{
											OFFSET 10.006996 -7.170425 9.573125
											CHANNELS 3 Xrotation Yrotation Zrotation
											JOINT LeftHandThumb2
											{
												OFFSET 1.835007 -1.059448 1.059443
												CHANNELS 3 Xrotation Yrotation Zrotation
												JOINT LeftHandThumb3
												{
													OFFSET 2.112267 -1.219513 1.219518
													CHANNELS 3 Xrotation Yrotation Zrotation
													JOINT LeftHandThumb4
													{
														OFFSET 4.843811 -2.796570 2.796576
														CHANNELS 3 Xrotation Yrotation Zrotation
														End Site
														{
															OFFSET 0.000000 0.000000 0.000000
														}
													}
												}
											}
										}
										JOINT LeftHandIndex1
										{
											OFFSET 18.389847 -0.922348 4.596882
											CHANNELS 3 Xrotation Yrotation Zrotation
											JOINT LeftHandIndex2
											{
												OFFSET 4.711273 0.000000 0.000000
												CHANNELS 3 Xrotation Yrotation Zrotation
												JOINT LeftHandIndex3
												{
													OFFSET 2.886131 0.000000 0.000000
													CHANNELS 3 Xrotation Yrotation Zrotation
													JOINT LeftHandIndex4
													{
														OFFSET 6.145912 0.000000 0.000000
														CHANNELS 3 Xrotation Yrotation Zrotation
														End Site
														{
															OFFSET 0.000000 0.000000 0.000000
														}
													}
												}
											}
										}
										JOINT LeftHandMiddle1
										{
											OFFSET 18.013008 0.000000 0.000000
											CHANNELS 3 Xrotation Yrotation Zrotation
											JOINT LeftHandMiddle2
											{
												OFFSET 4.946693 0.000000 0.000000
												CHANNELS 3 Xrotation Yrotation Zrotation
												JOINT LeftHandMiddle3
												{
													OFFSET 3.342232 0.000000 0.000000
													CHANNELS 3 Xrotation Yrotation Zrotation
													JOINT LeftHandMiddle4
													{
														OFFSET 4.461754 0.000000 0.000000
														CHANNELS 3 Xrotation Yrotation Zrotation
														End Site
														{
															OFFSET 0.000000 0.000000 0.000000
														}
													}
												}
											}
										}
										JOINT LeftHandRing1
										{
											OFFSET 15.849892 -0.102921 -4.126150
											CHANNELS 3 Xrotation Yrotation Zrotation
											JOINT LeftHandRing2
											{
												OFFSET 3.527054 0.000000 0.000000
												CHANNELS 3 Xrotation Yrotation Zrotation
												JOINT LeftHandRing3
												{
													OFFSET 2.961098 0.000000 0.000000
													CHANNELS 3 Xrotation Yrotation Zrotation
													JOINT LeftHandRing4
													{
														OFFSET 4.927200 0.000000 0.000000
														CHANNELS 3 Xrotation Yrotation Zrotation
														End Site
														{
															OFFSET 0.000000 0.000000 0.000000
														}
													}
												}
											}
										}
										JOINT LeftHandPinky1
										{
											OFFSET 12.791824 -0.832031 -6.799156
											CHANNELS 3 Xrotation Yrotation Zrotation
											JOINT LeftHandPinky2
											{
												OFFSET 3.327133 0.000000 0.000000
												CHANNELS 3 Xrotation Yrotation Zrotation
												JOINT LeftHandPinky3
												{
													OFFSET 3.014900 0.000000 0.000000
													CHANNELS 3 Xrotation Yrotation Zrotation
													JOINT LeftHandPinky4
													{
														OFFSET 5.847786 0.000000 0.000000
														CHANNELS 3 Xrotation Yrotation Zrotation
														End Site
														{
															OFFSET 0.000000 0.000000 0.000000
														}
													}
												}
											}
										}
									}
								}
							}
						}
					}
					JOINT RightShoulder
					{
						OFFSET -6.292450 5.785301 -0.669000
						CHANNELS 3 Xrotation Yrotation Zrotation
						JOINT RightShoulder_split
						{
							OFFSET -6.292450 5.785301 -0.669000
							CHANNELS 3 Xrotation Yrotation Zrotation
							JOINT RightArm
							{
								OFFSET -13.907140 -6.093903 1.965100
								CHANNELS 3 Xrotation Yrotation Zrotation
								JOINT RightForeArm
								{
									OFFSET -34.140198 0.000000 0.000000
									CHANNELS 3 Xrotation Yrotation Zrotation
									JOINT RightHand
									{
										OFFSET -40.960209 0.000000 0.000000
										CHANNELS 3 Xrotation Yrotation Zrotation
										JOINT RightHandThumb1
										{
											OFFSET -10.007050 -7.170456 9.573117
											CHANNELS 3 Xrotation Yrotation Zrotation
											JOINT RightHandThumb2
											{
												OFFSET -1.835007 -1.059448 1.059443
												CHANNELS 3 Xrotation Yrotation Zrotation
												JOINT RightHandThumb3
												{
													OFFSET -2.112267 -1.219513 1.219518
													CHANNELS 3 Xrotation Yrotation Zrotation
													JOINT RightHandThumb4
													{
														OFFSET -4.843834 -2.796585 2.796590
														CHANNELS 3 Xrotation Yrotation Zrotation
														End Site
														{
															OFFSET 0.000000 0.000000 0.000000
														}
													}
												}
											}
										}
										JOINT RightHandIndex1
										{
											OFFSET -18.389870 -0.922424 4.596786
											CHANNELS 3 Xrotation Yrotation Zrotation
											JOINT RightHandIndex2
											{
												OFFSET -4.711273 0.000000 0.000000
												CHANNELS 3 Xrotation Yrotation Zrotation
												JOINT RightHandIndex3
												{
													OFFSET -2.886131 0.000000 0.000000
													CHANNELS 3 Xrotation Yrotation Zrotation
													JOINT RightHandIndex4
													{
														OFFSET -6.145920 0.000000 0.000000
														CHANNELS 3 Xrotation Yrotation Zrotation
														End Site
														{
															OFFSET 0.000000 0.000000 0.000000
														}
													}
												}
											}
										}
										JOINT RightHandMiddle1
										{
											OFFSET -18.013008 0.000000 0.000000
											CHANNELS 3 Xrotation Yrotation Zrotation
											JOINT RightHandMiddle2
											{
												OFFSET -4.946693 0.000000 0.000000
												CHANNELS 3 Xrotation Yrotation Zrotation
												JOINT RightHandMiddle3
												{
													OFFSET -3.342232 0.000000 0.000000
													CHANNELS 3 Xrotation Yrotation Zrotation
													JOINT RightHandMiddle4
													{
														OFFSET -4.461754 0.000000 0.000000
														CHANNELS 3 Xrotation Yrotation Zrotation
														End Site
														{
															OFFSET 0.000000 0.000000 0.000000
														}
													}
												}
											}
										}
										JOINT RightHandRing1
										{
											OFFSET -15.849876 -0.102936 -4.126237
											CHANNELS 3 Xrotation Yrotation Zrotation
											JOINT RightHandRing2
											{
												OFFSET -3.527054 0.000000 0.000000
												CHANNELS 3 Xrotation Yrotation Zrotation
												JOINT RightHandRing3
												{
													OFFSET -2.961098 0.000000 0.000000
													CHANNELS 3 Xrotation Yrotation Zrotation
													JOINT RightHandRing4
													{
														OFFSET -4.927200 0.000000 0.000000
														CHANNELS 3 Xrotation Yrotation Zrotation
														End Site
														{
															OFFSET 0.000000 0.000000 0.000000
														}
													}
												}
											}
										}
										JOINT RightHandPinky1
										{
											OFFSET -12.791786 -0.832077 -6.799222
											CHANNELS 3 Xrotation Yrotation Zrotation
											JOINT RightHandPinky2
											{
												OFFSET -3.327133 0.000000 0.000000
												CHANNELS 3 Xrotation Yrotation Zrotation
												JOINT RightHandPinky3
												{
													OFFSET -3.014900 0.000000 0.000000
													CHANNELS 3 Xrotation Yrotation Zrotation
													JOINT RightHandPinky4
													{
														OFFSET -5.847786 0.000000 0.000000
														CHANNELS 3 Xrotation Yrotation Zrotation
														End Site
														{
															OFFSET 0.000000 0.000000 0.000000
														}
													}
												}
											}
										}
									}
								}
							}
						}
					}
				}
			}
		}
	}
	JOINT LeftUpLeg
	{
		OFFSET 13.026900 -6.336304 -1.092800
		CHANNELS 3 Xrotation Yrotation Zrotation
		JOINT LeftLeg
		{
			OFFSET 0.524474 -46.096886 9.782700
			CHANNELS 3 Xrotation Yrotation Zrotation
			JOINT LeftFoot
			{
				OFFSET -0.524474 -53.427422 -12.948200
				CHANNELS 3 Xrotation Yrotation Zrotation
				JOINT LeftToeBase
				{
					OFFSET 0.192200 -14.009700 16.364100
					CHANNELS 3 Xrotation Yrotation Zrotation
					JOINT LeftToe_End
					{
						OFFSET -1.784700 -0.561700 9.474800
						CHANNELS 3 Xrotation Yrotation Zrotation
						End Site
						{
							OFFSET 0.000000 0.000000 0.000000
						}
					}
				}
			}
		}
	}
	JOINT RightUpLeg
	{
		OFFSET -12.883000 -6.336304 -1.092800
		CHANNELS 3 Xrotation Yrotation Zrotation
		JOINT RightLeg
		{
			OFFSET -0.524587 -46.096825 9.782800
			CHANNELS 3 Xrotation Yrotation Zrotation
			JOINT RightFoot
			{
				OFFSET 0.524587 -53.427383 -12.948300
				CHANNELS 3 Xrotation Yrotation Zrotation
				JOINT RightToeBase
				{
					OFFSET -0.192200 -14.009700 16.364100
					CHANNELS 3 Xrotation Yrotation Zrotation
					JOINT RightToe_End
					{
						OFFSET 1.784700 -0.561700 9.474800
						CHANNELS 3 Xrotation Yrotation Zrotation
						End Site
						{
							OFFSET 0.000000 0.000000 0.000000
						}
					}
				}
			}
		}
	}
}
MOTION
Frames: 5
Frame Time: 0.016667
-6.433286 106.386406 21.503531 -3.721307 -9.873407 -1.020643 5.737512 1.121375 -0.622280 4.739112 -0.064816 0.012273 0.000000 0.000000 0.000000 10.292017 26.036295 -3.377462 3.202044 7.206158 0.255005 3.577861 59.991635 -6.564246 0.000001 -0.000001 -0.000001 8.936042 -24.743279 -2.968061 0.000000 0.000000 0.000000 -31.852847 14.094139 -57.493623 -91.088660 12.819662 -86.878654 -27.577464 -4.331858 -2.991475 0.699132 9.503389 -2.418117 5.975201 12.647534 1.348333 -23.873557 -17.664220 1.604934 -0.000000 -0.000001 -0.000001 9.479719 -1.289764 -20.785565 0.709478 2.796407 -28.467086 0.714011 2.804789 -28.559738 0.000000 0.000000 -0.000000 10.058160 -1.800601 -20.644715 1.774267 4.200491 -45.782058 1.632179 4.057786 -43.809404 -0.000001 -0.000000 -0.000001 1.254223 -0.073707 -17.945777 3.754097 5.463644 -68.965294 5.298514 9.638370 -33.747063 -0.000001 0.000000 -0.000001 -7.938247 1.609090 -6.495676 2.210561 4.583642 -51.475154 0.883823 3.096075 -31.858147 0.000001 0.000003 0.000000 10.514878 19.496053 -2.041466 0.000000 0.000000 0.000000 -4.648014 40.347792 49.038962 77.661826 115.432629 -92.279380 -10.082968 20.006792 14.104952 13.942492 -4.273689 -5.300365 7.113162 -20.767439 -2.619503 -3.463284 -24.899767 -18.660459 -0.000000 0.000001 -0.000001 0.357762 -5.832699 5.175839 0.094352 -0.933675 11.539915 0.777641 -2.578461 33.559943 -0.000001 0.000001 -0.000000 3.764086 -12.080459 1.143776 5.714284 -4.535842 103.133562 3.160507 -4.410592 71.234966 0.000000 0.000001 0.000001 -12.155603 -12.623905 9.228345 6.566878 -4.248478 114.232346 3.755183 -4.569214 78.819686 0.000000 -0.000002 -0.000000 -17.635762 -10.496865 3.325427 4.993643 -4.645039 94.147929 3.647356 -4.546608 77.463423 -0.000003 0.000001 0.000001 -29.777139 -3.446019 1.927568 41.554430 -3.183953 -2.423048 -8.277011 -6.149865 -0.277217 -0.154854 0.123961 0.175528 0.000000 -0.000001 -0.000000 -21.495141 3.251149 0.073609 44.072824 9.600425 -3.671127 -19.142389 4.168587 -0.335264 -1.112977 1.816858 1.373156 0.000000 -0.000000 -0.000000 
-7.339526 106.811951 21.453007 -3.621701 -8.419356 -0.866023 5.737193 1.146638 -0.695404 4.739293 -0.071923 0.012347 0.000000 0.000000 0.000000 10.288214 26.012979 -3.374273 3.194711 7.149676 0.254698 3.360325 59.445998 -6.494805 -0.000000 0.000000 -0.000001 8.936004 -24.743262 -2.968079 0.000000 0.000000 0.000000 -31.749649 14.370499 -57.487879 -91.150172 12.779544 -87.127928 -27.586021 -4.098555 -2.879880 0.699126 9.503389 -2.418118 5.975195 12.647536 1.348332 -23.873558 -17.664222 1.604935 -0.000002 -0.000000 -0.000001 9.479715 -1.289766 -20.785565 0.709477 2.796412 -28.467084 0.714009 2.804790 -28.559741 -0.000002 -0.000000 0.000001 10.058158 -1.800601 -20.644716 1.774266 4.200487 -45.782058 1.632177 4.057786 -43.809407 0.000000 -0.000000 0.000001 1.254220 -0.073708 -17.945777 3.754097 5.463641 -68.965294 5.298514 9.638369 -33.747063 0.000000 0.000001 0.000001 -7.938253 1.609089 -6.495676 2.210562 4.583640 -51.475150 0.883824 3.096076 -31.858147 -0.000001 -0.000000 -0.000000 10.514946 19.487737 -2.039802 0.000000 0.000000 0.000000 -4.646389 40.614699 49.167465 77.464830 115.453693 -92.137333 -9.777778 20.005592 13.914328 13.942491 -4.273689 -5.300365 7.113160 -20.767441 -2.619500 -3.463287 -24.899771 -18.660459 0.000003 -0.000000 -0.000003 0.357761 -5.832698 5.175841 0.094353 -0.933678 11.539913 0.777642 -2.578460 33.559943 -0.000000 -0.000001 -0.000001 3.764085 -12.080457 1.143778 5.714285 -4.535843 103.133562 3.160506 -4.410593 71.234966 -0.000000 0.000001 0.000001 -12.155605 -12.623906 9.228347 6.566878 -4.248478 114.232346 3.755183 -4.569212 78.819686 0.000001 0.000001 0.000000 -17.635760 -10.496864 3.325428 4.993644 -4.645038 94.147929 3.647357 -4.546610 77.463416 -0.000003 0.000000 -0.000001 -29.441612 -4.382852 1.728240 40.507250 -3.812190 -2.310584 -7.771919 -6.024684 -0.712710 -0.158097 0.126060 0.179237 -0.000000 0.000000 -0.000000 -20.942738 2.455168 -0.179120 43.229452 9.063386 -3.065865 -18.855806 4.257204 -0.668554 1.238633 2.059428 2.368092 0.000000 0.000001 -0.000000 
-8.225321 107.219254 21.346231 -3.526609 -6.866179 -0.694963 5.731480 1.167215 -0.772920 4.738549 -0.077031 0.013274 0.000000 0.000000 0.000000 10.277609 25.957789 -3.363606 3.181538 7.089883 0.250238 3.168551 58.869141 -6.463689 0.000000 0.000000 -0.000001 8.936023 -24.743209 -2.968078 0.000000 0.000000 0.000000 -31.626474 14.382066 -57.607858 -91.448713 12.659197 -87.264915 -27.549390 -3.888647 -2.758377 0.699129 9.503388 -2.418117 5.975194 12.647535 1.348332 -23.873550 -17.664220 1.604935 -0.000006 -0.000003 -0.000001 9.479717 -1.289769 -20.785565 0.709477 2.796410 -28.467088 0.714009 2.804791 -28.559746 0.000000 -0.000001 0.000001 10.058160 -1.800598 -20.644711 1.774268 4.200486 -45.782065 1.632182 4.057788 -43.809404 -0.000001 0.000000 0.000001 1.254221 -0.073707 -17.945777 3.754097 5.463644 -68.965294 5.298515 9.638369 -33.747063 -0.000001 -0.000001 -0.000001 -7.938250 1.609091 -6.495675 2.210564 4.583641 -51.475150 0.883822 3.096076 -31.858147 0.000000 0.000002 -0.000001 10.515028 19.480685 -2.038390 0.000000 0.000000 0.000000 -4.644165 40.827432 49.316537 77.224311 115.480139 -92.086215 -9.525323 19.966340 13.905989 13.942490 -4.273690 -5.300361 7.113160 -20.767443 -2.619504 -3.463287 -24.899765 -18.660463 -0.000000 0.000002 0.000000 0.357760 -5.832698 5.175841 0.094353 -0.933675 11.539915 0.777642 -2.578461 33.559943 -0.000000 -0.000000 -0.000003 3.764084 -12.080457 1.143778 5.714284 -4.535843 103.133562 3.160507 -4.410593 71.234966 0.000000 0.000001 0.000003 -12.155606 -12.623905 9.228351 6.566876 -4.248478 114.232353 3.755181 -4.569215 78.819680 -0.000000 -0.000001 0.000001 -17.635765 -10.496864 3.325428 4.993644 -4.645040 94.147929 3.647357 -4.546607 77.463423 -0.000002 0.000001 -0.000000 -29.173889 -5.291167 1.469534 39.419498 -4.719841 -2.210540 -7.174922 -5.711702 -1.061504 -0.160124 0.128064 0.181633 -0.000000 -0.000001 -0.000000 -20.390410 1.619902 -0.415961 42.451815 8.392198 -2.544808 -18.644695 4.349831 -1.090209 1.806949 2.203488 2.067292 0.000000 -0.000000 0.000000 
-9.046656 107.546440 21.156113 -3.435759 -5.175718 -0.544488 5.717542 1.188535 -0.819997 4.738976 -0.070925 0.012768 0.000000 0.000000 0.000000 10.249796 25.856279 -3.366812 3.164822 7.027056 0.241469 2.845051 57.878743 -6.391102 -0.000000 -0.000000 -0.000001 8.936045 -24.743248 -2.968071 0.000000 0.000000 0.000000 -31.289401 14.458624 -57.880300 -91.904293 12.474675 -87.595598 -27.473748 -3.547116 -2.576787 0.699130 9.503389 -2.418119 5.975197 12.647535 1.348332 -23.873550 -17.664225 1.604935 -0.000000 0.000001 0.000000 9.479719 -1.289766 -20.785567 0.709476 2.796410 -28.467088 0.714011 2.804786 -28.559736 -0.000001 -0.000000 0.000000 10.058159 -1.800600 -20.644716 1.774266 4.200490 -45.782058 1.632178 4.057788 -43.809404 0.000001 -0.000000 -0.000001 1.254220 -0.073709 -17.945781 3.754097 5.463645 -68.965294 5.298515 9.638370 -33.747067 0.000000 -0.000001 -0.000000 -7.938254 1.609091 -6.495676 2.210561 4.583641 -51.475150 0.883824 3.096072 -31.858147 -0.000001 0.000002 0.000000 10.514841 19.501174 -2.042496 0.000000 0.000000 0.000000 -4.444151 41.110772 49.507520 76.555684 115.556023 -91.692544 -9.035348 19.920035 13.815833 13.942492 -4.273691 -5.300363 7.113160 -20.767441 -2.619504 -3.463284 -24.899767 -18.660463 0.000003 0.000000 0.000003 0.357761 -5.832696 5.175840 0.094351 -0.933677 11.539913 0.777642 -2.578462 33.559940 0.000001 0.000001 0.000002 3.764085 -12.080456 1.143777 5.714284 -4.535843 103.133568 3.160507 -4.410593 71.234966 0.000000 0.000000 -0.000002 -12.155605 -12.623904 9.228348 6.566882 -4.248479 114.232346 3.755183 -4.569212 78.819680 0.000000 0.000001 0.000002 -17.635758 -10.496864 3.325429 4.993644 -4.645039 94.147929 3.647356 -4.546607 77.463416 -0.000002 -0.000001 0.000001 -29.050932 -6.069754 1.566579 38.570003 -3.382167 -2.135239 -6.605928 -6.325573 -2.007421 -0.101337 0.130135 0.257853 0.000000 -0.000001 -0.000000 -19.935618 0.744037 -0.622067 41.839888 7.546488 -2.129113 -18.523364 4.429305 -1.510586 1.891209 2.204755 2.164020 0.000000 0.000001 0.000000 
-9.791874 107.812477 20.900356 -3.350583 -3.419929 -0.419110 5.696762 1.200872 -0.835903 4.741278 -0.063565 0.011808 0.000000 0.000000 0.000000 10.218570 25.720431 -3.366812 3.145543 6.961892 0.230086 2.520928 56.815918 -6.334003 -0.000000 -0.000000 -0.000000 8.936013 -24.743308 -2.968072 0.000000 0.000000 0.000000 -30.898307 14.479569 -58.234999 -92.469239 12.257726 -87.943767 -27.369294 -3.186898 -2.376245 0.699127 9.503387 -2.418120 5.975198 12.647536 1.348333 -23.873553 -17.664223 1.604936 0.000003 0.000000 0.000001 9.479716 -1.289767 -20.785565 0.709475 2.796412 -28.467084 0.714010 2.804790 -28.559741 0.000003 -0.000001 0.000000 10.058159 -1.800602 -20.644716 1.774267 4.200489 -45.782058 1.632182 4.057787 -43.809407 -0.000001 -0.000001 0.000001 1.254220 -0.073707 -17.945779 3.754097 5.463643 -68.965294 5.298513 9.638371 -33.747063 -0.000001 -0.000001 -0.000001 -7.938254 1.609088 -6.495673 2.210563 4.583642 -51.475154 0.883822 3.096076 -31.858147 0.000001 0.000002 0.000001 10.515774 19.488637 -2.040138 0.000000 0.000000 0.000000 -4.203961 41.444720 49.690296 75.831274 115.641933 -91.307478 -8.536993 19.865986 13.775110 13.942493 -4.273690 -5.300364 7.113161 -20.767438 -2.619501 -3.463285 -24.899769 -18.660463 -0.000002 -0.000002 0.000003 0.357762 -5.832697 5.175840 0.094351 -0.933676 11.539911 0.777641 -2.578460 33.559940 0.000000 -0.000001 -0.000003 3.764085 -12.080457 1.143776 5.714285 -4.535842 103.133562 3.160507 -4.410593 71.234966 0.000000 0.000000 0.000000 -12.155603 -12.623904 9.228349 6.566880 -4.248478 114.232353 3.755183 -4.569213 78.819686 -0.000001 0.000000 -0.000001 -17.635760 -10.496861 3.325427 4.993643 -4.645037 94.147929 3.647357 -4.546607 77.463416 -0.000000 0.000000 0.000000 -29.115280 -6.672145 1.952388 38.224659 -1.212753 -2.077691 -6.137444 -7.001255 -3.500480 -0.037954 0.169697 0.296774 -0.000000 -0.000000 -0.000000 -19.560202 -0.171770 -0.794240 41.318656 6.704387 -1.788649 -18.422560 4.480687 -1.819807 1.930177 2.205447 2.208771 0.000000 -0.000001 0.000000 
